<svg width="68" height="69" viewBox="0 0 68 69" fill="none" xmlns="http://www.w3.org/2000/svg">
<g clip-path="url(#clip0_118_143)">
<path d="M24.918 21.4186H43.082C45.8359 21.4186 48.0625 23.6561 48.0625 26.4236V43.9704C48.0625 46.7379 45.8359 48.9754 43.082 48.9754H24.918C22.1641 48.9754 19.9375 46.7379 19.9375 43.9704V26.4236C19.9375 23.6561 22.1641 21.4186 24.918 21.4186Z" fill="#00005B"/>
<path d="M31.2344 37.9055H26.875L25.9843 40.6847C25.9609 40.7906 25.8671 40.8613 25.7617 40.8495H23.5586C23.4297 40.8495 23.3946 40.7789 23.4297 40.6376L27.2032 29.7679C27.2383 29.6501 27.2735 29.5442 27.3204 29.4029C27.3673 29.1556 27.3907 28.8965 27.3907 28.6374C27.379 28.5785 27.4258 28.5196 27.4844 28.5078H30.5195C30.6016 28.5078 30.6602 28.5431 30.6719 28.602L34.9492 40.6139C34.9844 40.7435 34.9492 40.8024 34.832 40.8024H32.3828C32.3008 40.8142 32.2187 40.7553 32.1952 40.6728L31.2343 37.8465V37.9054L31.2344 37.9055ZM27.5547 35.562H30.5312C30.4609 35.3148 30.3672 35.0203 30.2617 34.7141C30.1562 34.3962 30.0508 34.0547 29.9453 33.7014C29.8281 33.3363 29.7227 32.983 29.6055 32.618C29.4883 32.2529 29.3828 31.9114 29.2891 31.5699C29.1954 31.2401 29.1134 30.9339 29.0313 30.6513H29.0079C28.9024 31.1577 28.7735 31.664 28.6094 32.1705C28.4337 32.7358 28.2578 33.3246 28.0703 33.9135C27.918 34.514 27.7304 35.0675 27.5547 35.5621V35.562ZM41.8516 36.8456H38.1367C38.1836 37.2107 38.3007 37.5757 38.5 37.8938C38.7109 38.2117 39.0038 38.459 39.3554 38.6003C39.8242 38.8006 40.3398 38.9065 40.8554 38.8947C41.2655 38.883 41.6757 38.8476 42.0741 38.7652C42.4373 38.718 42.7889 38.6239 43.1171 38.4943C43.1757 38.4472 43.2108 38.4708 43.2108 38.5885V40.3903C43.2108 40.4375 43.1991 40.4845 43.1874 40.5316C43.164 40.567 43.1405 40.5905 43.1054 40.6141C42.7304 40.7789 42.3436 40.8967 41.9335 40.9674C41.3827 41.0733 40.8319 41.1204 40.2694 41.1087C39.3787 41.1087 38.6288 40.9673 38.0194 40.6965C37.4452 40.4491 36.9413 40.0605 36.5428 39.5777C36.1678 39.1185 35.8983 38.6002 35.7343 38.035C35.5702 37.4815 35.4881 36.9044 35.4881 36.3156C35.4881 35.6797 35.5818 35.0555 35.7811 34.4431C35.9686 33.8543 36.2615 33.3126 36.6599 32.8297C37.0467 32.3586 37.5271 31.9818 38.0779 31.711C38.6287 31.4401 39.2849 31.3459 40.0349 31.3459C40.656 31.3342 41.2771 31.452 41.8513 31.711C42.3318 31.9229 42.7537 32.241 43.0819 32.653C43.3865 33.0535 43.6327 33.5009 43.785 33.9956C43.9373 34.4666 44.0076 34.9494 44.0076 35.4322C44.0076 35.7149 43.9959 35.9622 43.9842 36.186C43.9608 36.4097 43.949 36.5746 43.9373 36.6806C43.9256 36.763 43.8553 36.8337 43.7733 36.8337C43.703 36.8337 43.574 36.8454 43.3865 36.8572C43.199 36.8807 42.9763 36.8926 42.7068 36.8926C42.4372 36.8926 42.156 36.8454 41.8513 36.8454L41.8516 36.8456ZM38.1367 35.1263H40.6093C40.914 35.1263 41.1367 35.1263 41.2772 35.1146C41.371 35.1028 41.4648 35.0792 41.5468 35.0204V34.9026C41.5468 34.7495 41.5234 34.6082 41.4765 34.4669C41.2655 33.8074 40.6444 33.3599 39.953 33.3835C39.3085 33.3481 38.6991 33.6896 38.3944 34.2785C38.2538 34.5494 38.1718 34.832 38.1366 35.1264L38.1367 35.1263Z" fill="#9999FF"/>
</g>
<defs>
<clipPath id="clip0_118_143">
<rect width="28.125" height="27.5625" fill="white" transform="translate(19.9375 21.4158)"/>
</clipPath>
</defs>
</svg>
