<svg width="68" height="68" viewBox="0 0 68 68" fill="none" xmlns="http://www.w3.org/2000/svg">
<g clip-path="url(#clip0_118_144)">
<mask id="mask0_118_144" style="mask-type:luminance" maskUnits="userSpaceOnUse" x="19" y="20" width="29" height="29">
<path d="M47.491 20.9158H19.6875V48.0242H47.491V20.9158Z" fill="white"/>
</mask>
<g mask="url(#mask0_118_144)">
<path d="M42.5675 20.9158H24.611C21.8918 20.9158 19.6875 23.1201 19.6875 25.8393V43.1007C19.6875 45.8198 21.8918 48.0242 24.611 48.0242H42.5675C45.2867 48.0242 47.491 45.8198 47.491 43.1007V25.8393C47.491 23.1201 45.2867 20.9158 42.5675 20.9158Z" fill="#330000"/>
<path d="M33.1606 37.1841H28.8521L27.9755 39.9073C27.9636 39.9569 27.9346 40.0009 27.8938 40.0315C27.8529 40.0622 27.8027 40.0776 27.7517 40.0752H25.5694C25.445 40.0752 25.4015 40.0068 25.4389 39.87L29.1691 29.1267C29.2065 29.0148 29.2438 28.8874 29.2811 28.7443C29.3299 28.4955 29.3549 28.2426 29.3557 27.989C29.3532 27.9712 29.3548 27.9531 29.3604 27.9362C29.3661 27.9192 29.3757 27.9037 29.3883 27.8911C29.401 27.8784 29.4165 27.8688 29.4334 27.8632C29.4504 27.8575 29.4685 27.8559 29.4863 27.8584H32.4518C32.5387 27.8584 32.5884 27.8895 32.601 27.9517L36.835 39.8886C36.8723 40.0131 36.8349 40.0753 36.723 40.0752H34.2983C34.2567 40.0798 34.2148 40.0691 34.1804 40.045C34.1461 40.021 34.1217 39.9853 34.1118 39.9446L33.1606 37.1841ZM29.5235 34.8341H32.4705C32.3959 34.5855 32.3088 34.3057 32.2094 33.9947C32.1097 33.6841 32.004 33.3515 31.8923 32.9969C31.7804 32.6425 31.6684 32.2882 31.5565 31.9337C31.4446 31.5794 31.3421 31.2374 31.2488 30.9079C31.1555 30.5786 31.0716 30.2771 30.9971 30.0033H30.9784C30.8734 30.5071 30.7426 31.0051 30.5867 31.4954C30.4124 32.055 30.2352 32.627 30.0551 33.2114C29.8747 33.796 29.6975 34.3369 29.5235 34.8341Z" fill="#FF9A00"/>
<path d="M39.3527 29.8354C39.1625 29.843 38.9728 29.8104 38.796 29.7397C38.6193 29.669 38.4594 29.5618 38.3269 29.4251C38.1948 29.2824 38.0922 29.115 38.0249 28.9326C37.9577 28.7501 37.9272 28.5562 37.9352 28.3619C37.9284 28.1696 37.9623 27.978 38.0346 27.7996C38.1069 27.6212 38.2161 27.4601 38.3548 27.3268C38.4923 27.1948 38.6546 27.0914 38.8323 27.0226C39.01 26.9538 39.1995 26.9209 39.39 26.9258C39.8377 26.9258 40.189 27.0594 40.4439 27.3268C40.5725 27.4657 40.6725 27.6286 40.7381 27.8063C40.8037 27.9839 40.8336 28.1727 40.8262 28.3619C40.834 28.557 40.8025 28.7516 40.7336 28.9342C40.6647 29.1168 40.5598 29.2838 40.4252 29.4251C40.2845 29.5638 40.1165 29.6719 39.9319 29.7425C39.7473 29.8131 39.5502 29.8447 39.3527 29.8354ZM38.0657 39.8885V30.9731C38.0657 30.8612 38.1153 30.8053 38.215 30.8053H40.5091C40.6085 30.8053 40.6582 30.8612 40.6584 30.9731V39.8885C40.6584 40.013 40.6086 40.0752 40.5091 40.0751H38.2336C38.1217 40.0751 38.0658 40.0129 38.0657 39.8885Z" fill="#FF9A00"/>
</g>
</g>
<defs>
<clipPath id="clip0_118_144">
<rect width="28.125" height="27.1084" fill="white" transform="translate(19.6875 20.9158)"/>
</clipPath>
</defs>
</svg>
