<svg width="68" height="69" viewBox="0 0 68 69" fill="none" xmlns="http://www.w3.org/2000/svg">
<g clip-path="url(#clip0_118_141)">
<path d="M27.625 54.6033C31.2475 54.6033 34.1875 51.6633 34.1875 48.0408V41.4783H27.625C24.0025 41.4783 21.0625 44.4183 21.0625 48.0408C21.0625 51.6633 24.0025 54.6033 27.625 54.6033Z" fill="#0ACF83"/>
<path d="M21.0625 34.9158C21.0625 31.2933 24.0025 28.3533 27.625 28.3533H34.1875V41.4783H27.625C24.0025 41.4783 21.0625 38.5383 21.0625 34.9158Z" fill="#A259FF"/>
<path d="M21.0625 21.7908C21.0625 18.1683 24.0025 15.2283 27.625 15.2283H34.1875V28.3533H27.625C24.0025 28.3533 21.0625 25.4133 21.0625 21.7908Z" fill="#F24E1E"/>
<path d="M34.1875 15.2283H40.75C44.3725 15.2283 47.3125 18.1683 47.3125 21.7908C47.3125 25.4133 44.3725 28.3533 40.75 28.3533H34.1875V15.2283Z" fill="#FF7262"/>
<path d="M47.3125 34.9158C47.3125 38.5383 44.3725 41.4783 40.75 41.4783C37.1275 41.4783 34.1875 38.5383 34.1875 34.9158C34.1875 31.2933 37.1275 28.3533 40.75 28.3533C44.3725 28.3533 47.3125 31.2933 47.3125 34.9158Z" fill="#1ABCFE"/>
</g>
<defs>
<clipPath id="clip0_118_141">
<rect width="26.25" height="39.375" fill="white" transform="translate(21.0625 15.2283)"/>
</clipPath>
</defs>
</svg>
