<svg width="68" height="69" viewBox="0 0 68 69" fill="none" xmlns="http://www.w3.org/2000/svg">
<g clip-path="url(#clip0_118_145)">
<path d="M24.918 21.2048H43.082C45.836 21.2048 48.0625 23.4313 48.0625 26.1854V43.6462C48.0625 46.4002 45.836 48.6267 43.082 48.6267H24.918C22.164 48.6267 19.9375 46.4002 19.9375 43.6462V26.1854C19.9375 23.4313 22.164 21.2048 24.918 21.2048Z" fill="#001E36"/>
<path d="M30.0157 28.1774C29.6641 28.1774 29.3126 28.1774 28.9494 28.1893C28.5859 28.2009 28.246 28.2009 27.9296 28.2128C27.6132 28.2245 27.3203 28.2245 27.0391 28.2361C26.7695 28.2477 26.582 28.2477 26.3827 28.2477C26.3008 28.2477 26.2656 28.2945 26.2656 28.3767V40.4353C26.2656 40.5408 26.3124 40.5878 26.4063 40.5878H28.6798C28.7617 40.5759 28.8204 40.5056 28.8085 40.4237V36.662C29.0311 36.662 29.1952 36.662 29.3126 36.6736C29.4297 36.6852 29.6171 36.6852 29.8984 36.6852C30.8594 36.6852 31.7384 36.5798 32.5351 36.2869C33.2969 36.0056 33.9532 35.5134 34.4219 34.8571C34.8906 34.201 35.125 33.3689 35.125 32.361C35.125 31.8337 35.0314 31.3298 34.8556 30.8377C34.6695 30.3362 34.3777 29.8805 34 29.5017C33.5544 29.0688 33.0179 28.7405 32.4296 28.5406C31.7733 28.2945 30.9766 28.1774 30.0157 28.1774ZM30.2772 30.4857C30.6947 30.4936 31.1011 30.5665 31.4804 30.7203C31.8203 30.8493 32.1016 31.0838 32.3009 31.3883C32.488 31.7034 32.5815 32.0653 32.5705 32.4316C32.5705 32.947 32.4531 33.3456 32.207 33.6385C31.9491 33.9314 31.621 34.1542 31.2462 34.2597C30.8124 34.4003 30.3554 34.4704 29.8984 34.4704H29.2772C29.1366 34.4704 28.9845 34.4588 28.8204 34.4471V30.5096C28.9023 30.4977 29.0665 30.4861 29.3009 30.498C29.5235 30.4861 29.7929 30.4861 30.0977 30.4861C30.1576 30.4846 30.2176 30.4843 30.2772 30.4857ZM40.1055 31.084C39.2734 31.084 38.582 31.2127 38.0313 31.494C37.5275 31.7284 37.0938 32.1033 36.8009 32.572C36.5431 33.0057 36.4023 33.486 36.4023 33.9901C36.3922 34.4046 36.4848 34.8153 36.6719 35.1854C36.8911 35.5795 37.1954 35.9197 37.5626 36.1814C38.0782 36.5339 38.6376 36.8176 39.2266 37.0252C39.8008 37.2477 40.1875 37.4235 40.3751 37.5758C40.5626 37.7283 40.6564 37.8806 40.6564 38.0447C40.6564 38.2556 40.5274 38.4549 40.34 38.5369C40.1291 38.6423 39.8126 38.701 39.3673 38.701C38.8986 38.701 38.4297 38.6423 37.9843 38.5252C37.4729 38.4109 36.9826 38.2172 36.5312 37.9511C36.4961 37.9276 36.4609 37.9159 36.4258 37.9394C36.3906 37.9627 36.379 38.0095 36.379 38.0447V40.0838C36.3673 40.1776 36.4258 40.2595 36.508 40.3063C36.888 40.4839 37.2899 40.61 37.7033 40.6814C38.2306 40.7869 38.7577 40.8337 39.2967 40.8337C40.1405 40.8337 40.8438 40.7049 41.418 40.4588C41.9453 40.2479 42.4023 39.8847 42.7304 39.4158C43.0375 38.9548 43.1969 38.4111 43.1874 37.8573C43.1989 37.4389 43.1063 37.0241 42.918 36.6503C42.6952 36.2517 42.3788 35.9237 41.9921 35.6776C41.4263 35.3223 40.8206 35.0351 40.1875 34.822C39.9047 34.705 39.6271 34.576 39.3554 34.4352C39.2031 34.3533 39.0625 34.2478 38.957 34.1188C38.8867 34.025 38.8399 33.9198 38.8399 33.8143C38.8399 33.7088 38.8751 33.5917 38.9335 33.4979C39.0157 33.3808 39.1445 33.2986 39.2967 33.2634C39.5195 33.205 39.7656 33.1696 39.9999 33.1813C40.4452 33.1813 40.8788 33.2399 41.3125 33.3338C41.7111 33.4157 42.0859 33.5447 42.4375 33.7323C42.4843 33.7556 42.543 33.7556 42.6484 33.7323C42.6668 33.7188 42.6817 33.7011 42.6919 33.6807C42.7021 33.6603 42.7073 33.6378 42.7071 33.615V31.7049C42.7071 31.6579 42.6952 31.6111 42.6836 31.5643C42.6601 31.5175 42.6133 31.4705 42.5665 31.4588C42.2433 31.3266 41.9046 31.236 41.5586 31.1892C41.0774 31.1191 40.5918 31.0841 40.1055 31.084Z" fill="#31A8FF"/>
</g>
<defs>
<clipPath id="clip0_118_145">
<rect width="28.125" height="28.125" fill="white" transform="translate(19.9375 20.8533)"/>
</clipPath>
</defs>
</svg>
