<svg width="68" height="68" viewBox="0 0 68 68" fill="none" xmlns="http://www.w3.org/2000/svg">
<g clip-path="url(#clip0_118_142)">
<path d="M47.1263 14.4783H20.1937C16.4969 14.4783 13.5 17.4752 13.5 21.172V47.0965C13.5 50.7934 16.4969 53.7903 20.1937 53.7903H47.1263C50.8231 53.7903 53.82 50.7934 53.82 47.0965V21.172C53.82 17.4752 50.8231 14.4783 47.1263 14.4783Z" fill="#470137"/>
<path d="M34.6961 24.8167L29.6651 33.1205L35.0476 41.9381C35.0822 41.9998 35.0919 42.0724 35.0747 42.141C35.0663 42.1702 35.0484 42.1775 35.0209 42.1785L34.9902 42.1781L34.9531 42.1771C34.9329 42.1771 34.9104 42.1781 34.8854 42.1822L31.0046 42.1821L30.9283 42.181C30.7191 42.1755 30.5685 42.1456 30.4765 41.9922C30.1156 41.289 29.755 40.5903 29.3946 39.896C29.0788 39.2888 28.746 38.671 28.3961 38.0426L28.2451 37.7727C27.8394 37.0517 27.4382 36.3214 27.0415 35.5818H27.0144C26.6535 36.3032 26.2793 37.0245 25.8919 37.7457C25.504 38.4671 25.1208 39.1839 24.7424 39.896C24.3637 40.6085 23.976 41.3163 23.5793 42.0193C23.5156 42.1625 23.4097 42.1923 23.2619 42.1974L23.2006 42.1983H19.4951L19.4791 42.1987L19.4261 42.2036C19.3966 42.2053 19.3791 42.199 19.3734 42.1545C19.3632 42.0885 19.3776 42.0211 19.414 41.9652L24.6342 33.3909L19.5492 24.7897C19.4951 24.7179 19.4861 24.6593 19.5221 24.6139C19.5626 24.5671 19.6227 24.542 19.6844 24.5462H23.4981C23.5813 24.5417 23.6644 24.5555 23.7416 24.5868C23.8063 24.6235 23.8618 24.6744 23.9039 24.7356C24.2285 25.457 24.5891 26.1783 24.9858 26.8994C25.3822 27.6209 25.7834 28.3331 26.1894 29.0362C26.5951 29.7395 26.9693 30.4517 27.3119 31.173H27.339C27.6994 30.4338 28.0646 29.7126 28.4344 29.0092C28.8038 28.3059 29.1825 27.5982 29.5704 26.8859C29.958 26.1738 30.3322 25.466 30.6929 24.7626C30.7137 24.6959 30.7509 24.6354 30.8011 24.5868C30.8679 24.5529 30.943 24.5389 31.0175 24.5462H34.5608C34.6311 24.5289 34.7042 24.5626 34.7366 24.6274C34.766 24.6863 34.7548 24.7567 34.7104 24.8035L34.6961 24.8167ZM42.6451 42.5312L42.4585 42.5332C41.2135 42.5521 39.98 42.2934 38.8476 41.7758C37.7926 41.2876 36.9108 40.4906 36.3186 39.4903C35.7215 38.4985 35.4151 37.2629 35.3996 35.7835L35.399 35.663C35.3888 34.4216 35.706 33.1994 36.3186 32.1197C36.9321 31.0504 37.8263 30.1701 38.9036 29.5735L38.9964 29.5231C40.1683 28.8739 41.5838 28.5494 43.2429 28.5494L43.3155 28.5502L43.3983 28.5527L43.4913 28.557L43.5945 28.5629L43.7681 28.5751L43.9646 28.5909L44.1084 28.6035V23.275C44.1084 23.149 44.1625 23.0857 44.2707 23.0857H47.6787C47.7234 23.0793 47.7685 23.0943 47.8005 23.1262C47.8324 23.1581 47.8474 23.2032 47.8411 23.2479V39.2333C47.8411 39.5018 47.8514 39.7908 47.8721 40.1002L47.9225 40.802L47.9493 41.2078C47.9561 41.3228 47.8916 41.4302 47.7869 41.4783C46.9077 41.845 45.992 42.117 45.0551 42.2897C44.2597 42.4365 43.4536 42.5173 42.6451 42.5312ZM44.1084 39.1792V31.7951C43.9622 31.7555 43.8129 31.7284 43.6622 31.714C43.4779 31.6954 43.2928 31.6864 43.1076 31.6869C42.4513 31.6804 41.8026 31.8287 41.2143 32.1197C40.6412 32.4045 40.152 32.8333 39.7943 33.3639C39.4373 33.8862 39.2526 34.5682 39.2404 35.4099L39.2398 35.5007C39.2266 36.0903 39.3229 36.6773 39.5238 37.2318C39.6872 37.6786 39.9456 38.0846 40.2812 38.4219C40.6023 38.7322 40.9912 38.9637 41.4171 39.0981C41.867 39.2438 42.3372 39.3168 42.8101 39.3146C43.0624 39.3146 43.2968 39.3055 43.5133 39.2874C43.6861 39.2744 43.8573 39.2459 44.0249 39.2023L44.1084 39.1792Z" fill="#FF61F6"/>
</g>
<defs>
<clipPath id="clip0_118_142">
<rect width="40.32" height="39.375" fill="white" transform="translate(13.5 14.4783)"/>
</clipPath>
</defs>
</svg>
