<svg width="68" height="68" viewBox="0 0 68 68" fill="none" xmlns="http://www.w3.org/2000/svg">
<g clip-path="url(#clip0_279_94)">
<path d="M34 48C41.732 48 48 41.732 48 34C48 26.268 41.732 20 34 20C26.268 20 20 26.268 20 34C20 41.732 26.268 48 34 48Z" fill="#1769FF"/>
<path d="M29.8907 27.6563C30.4944 27.6563 31.0454 27.7101 31.5438 27.8165C32.0422 27.9229 32.4678 28.0976 32.8229 28.3406C33.1779 28.5837 33.4534 28.9062 33.6494 29.3094C33.8454 29.7126 33.9429 30.2099 33.9429 30.8024C33.9429 31.4419 33.7973 31.975 33.5072 32.4018C33.2171 32.8285 32.787 33.1779 32.2192 33.4501C33.0009 33.6752 33.5845 34.0694 33.9697 34.6317C34.355 35.1939 34.5477 35.8726 34.5477 36.6667C34.5477 37.3062 34.4233 37.8606 34.1747 38.3288C33.9261 38.797 33.5912 39.1789 33.1701 39.4746C32.7489 39.7714 32.2696 39.9898 31.7309 40.132C31.1888 40.2742 30.6299 40.3459 30.0699 40.3448H23.92V27.6563H29.8907ZM29.5357 32.7915C30.0329 32.7915 30.4417 32.6728 30.7621 32.4365C31.0824 32.199 31.2425 31.8149 31.2414 31.2818C31.2414 30.9861 31.1877 30.743 31.0813 30.5538C30.9749 30.3645 30.8326 30.2155 30.6545 30.1091C30.4765 30.0027 30.2726 29.9288 30.0419 29.8874C29.8045 29.8459 29.5637 29.8246 29.3217 29.8258H26.711V32.7938L29.5357 32.7915ZM29.6958 38.1754C29.959 38.1765 30.2211 38.1496 30.4776 38.0958C30.7262 38.0421 30.9457 37.9536 31.135 37.8293C31.3243 37.705 31.4755 37.5358 31.5886 37.323C31.7006 37.1102 31.7577 36.837 31.7577 36.5054C31.7577 35.8547 31.5741 35.3888 31.2067 35.111C30.8393 34.8322 30.3533 34.6933 29.7496 34.6933H26.711V38.1765L29.6958 38.1754ZM38.0577 37.9088C38.4363 38.2762 38.9817 38.4598 39.6929 38.4598C40.2025 38.4598 40.6405 38.3322 41.0078 38.0779C41.3752 37.8237 41.6003 37.5538 41.6832 37.2693H43.9041C43.5491 38.3714 43.0037 39.1587 42.2689 39.6325C41.5342 40.1062 40.6461 40.3437 39.6033 40.3437C38.8809 40.3437 38.2291 40.2283 37.6489 39.9976C37.0688 39.7669 36.5771 39.4376 36.1739 39.0109C35.7707 38.5842 35.4593 38.0757 35.2409 37.4832C35.0225 36.8907 34.9128 36.2389 34.9128 35.5288C34.9128 34.8422 35.0248 34.2027 35.2499 33.6102C35.475 33.0178 35.7953 32.5059 36.2097 32.0736C36.6241 31.6413 37.1192 31.3008 37.6937 31.0522C38.2683 30.8035 38.9056 30.6792 39.6045 30.6792C40.3862 30.6792 41.0672 30.8304 41.6485 31.1328C42.2286 31.4352 42.7057 31.8406 43.0787 32.3502C43.4517 32.8598 43.7216 33.44 43.8873 34.0918C44.0531 34.7437 44.1125 35.4246 44.0654 36.1358H37.4373C37.472 36.9501 37.6792 37.5426 38.0577 37.9088ZM40.9104 33.076C40.608 32.7445 40.1488 32.5787 39.5328 32.5787C39.1296 32.5787 38.7947 32.647 38.5293 32.7826C38.2627 32.9192 38.0499 33.0872 37.8897 33.2888C37.7296 33.4904 37.6176 33.7032 37.5526 33.9283C37.4877 34.1534 37.4485 34.355 37.4373 34.532H41.5421C41.4222 33.8936 41.2117 33.4075 40.9104 33.076ZM37.0049 28.3003H42.1334V29.7227H37.0049V28.3003Z" fill="white"/>
</g>
<defs>
<clipPath id="clip0_279_94">
<rect width="28" height="28" fill="white" transform="translate(20 20)"/>
</clipPath>
</defs>
</svg>
