<svg width="68" height="68" viewBox="0 0 68 68" fill="none" xmlns="http://www.w3.org/2000/svg">
<g clip-path="url(#clip0_281_99)">
<path fill-rule="evenodd" clip-rule="evenodd" d="M34 20.3307C28.8609 20.3307 24.6933 24.4973 24.6933 29.6375C24.6933 33.7493 27.3599 37.2379 31.0578 38.4684C31.5229 38.5546 31.6937 38.2665 31.6937 38.0206C31.6937 37.7988 31.685 37.0656 31.681 36.2881C29.0917 36.851 28.5455 35.19 28.5455 35.19C28.1222 34.1142 27.5121 33.8281 27.5121 33.8281C26.6677 33.2506 27.5755 33.2624 27.5755 33.2624C28.5103 33.328 29.0025 34.2216 29.0025 34.2216C29.8324 35.6443 31.1797 35.2329 31.7106 34.9951C31.7944 34.3935 32.0354 33.9827 32.3016 33.7504C30.2345 33.5152 28.0614 32.717 28.0614 29.151C28.0614 28.1349 28.425 27.3047 29.0204 26.6528C28.9237 26.4183 28.6052 25.4716 29.1105 24.1897C29.1105 24.1897 29.8919 23.9399 31.6699 25.1441C32.4125 24.9378 33.2088 24.8344 33.9996 24.8309C34.7906 24.8346 35.5873 24.9381 36.331 25.1441C38.1073 23.9401 38.8878 24.1899 38.8878 24.1899C39.3944 25.4718 39.0759 26.4183 38.9792 26.6531C39.576 27.3045 39.9369 28.1349 39.9369 29.1512C39.9369 32.7256 37.7597 33.5126 35.6872 33.7427C36.021 34.0315 36.3185 34.5981 36.3185 35.4665C36.3185 36.7116 36.308 37.7137 36.308 38.0202C36.308 38.2674 36.4756 38.5579 36.9472 38.4664C40.6432 37.2344 43.3063 33.7471 43.3063 29.6366C43.3067 24.4975 39.14 20.3307 34 20.3307Z" fill="#F8F8F8"/>
<path d="M28.2185 33.6929C28.1977 33.7392 28.1248 33.753 28.0588 33.7213C27.991 33.6907 27.9533 33.6279 27.9752 33.5813C27.9949 33.534 28.068 33.5207 28.1356 33.5524C28.2034 33.583 28.2417 33.6465 28.2185 33.6929ZM28.5954 34.1137C28.551 34.1546 28.4641 34.1356 28.4051 34.0704C28.3443 34.0055 28.3329 33.9186 28.3779 33.877C28.4234 33.8359 28.5077 33.8552 28.5683 33.9201C28.6295 33.9858 28.6415 34.0717 28.5952 34.1135L28.5954 34.1137ZM28.9622 34.6492C28.9053 34.689 28.8119 34.6519 28.7544 34.569C28.6971 34.4865 28.6971 34.3874 28.7555 34.3474C28.8133 34.3075 28.9051 34.3434 28.9633 34.4255C29.0206 34.5097 29.0206 34.609 28.9622 34.6492ZM29.4649 35.1672C29.4139 35.2235 29.3052 35.2084 29.2258 35.1316C29.1444 35.0565 29.1219 34.95 29.1729 34.8938C29.2247 34.8376 29.3339 34.8533 29.4139 34.9295C29.4949 35.0043 29.5194 35.1112 29.4649 35.1672ZM30.1588 35.4678C30.136 35.5409 30.0315 35.5739 29.926 35.543C29.8206 35.5111 29.7519 35.4258 29.7729 35.3523C29.7948 35.2788 29.9002 35.2445 30.0063 35.2775C30.1113 35.309 30.1804 35.3934 30.1588 35.4678ZM30.92 35.5236C30.9229 35.6001 30.8334 35.664 30.7227 35.6653C30.6116 35.668 30.5215 35.6058 30.5202 35.5301C30.5202 35.4527 30.6077 35.3897 30.7188 35.388C30.8295 35.3858 30.92 35.4475 30.92 35.5236ZM31.6288 35.403C31.6419 35.4779 31.5653 35.5549 31.4553 35.5752C31.3473 35.5953 31.2475 35.549 31.2335 35.4746C31.2204 35.398 31.2985 35.3215 31.4063 35.3013C31.5163 35.2821 31.6148 35.3269 31.6288 35.403Z" fill="#F8F8F8"/>
<path d="M25.4371 43.6911H23.0964C23.0674 43.6911 23.0396 43.7026 23.0191 43.7231C22.9986 43.7436 22.9871 43.7714 22.9871 43.8004V44.9449C22.9871 44.9739 22.9986 45.0018 23.0191 45.0223C23.0396 45.0428 23.0674 45.0543 23.0964 45.0543H24.0093V46.4762C24.0093 46.4762 23.8043 46.5462 23.2371 46.5462C22.5686 46.5462 21.6343 46.3021 21.6343 44.2476C21.6343 42.1928 22.6073 41.9222 23.5208 41.9222C24.3114 41.9222 24.6517 42.0614 24.8687 42.1285C24.9366 42.1491 25 42.0813 25 42.0209L25.261 40.9151C25.2614 40.8986 25.2578 40.8821 25.2505 40.8673C25.2432 40.8524 25.2323 40.8396 25.219 40.8298C25.1308 40.7668 24.594 40.4667 23.2375 40.4667C21.6748 40.4667 20.0718 41.1312 20.0718 44.3276C20.0718 47.5236 21.9071 47.9998 23.4537 47.9998C24.7342 47.9998 25.511 47.4525 25.511 47.4525C25.5429 47.435 25.5464 47.3901 25.5464 47.3693V43.8002C25.5464 43.7712 25.5349 43.7434 25.5144 43.7229C25.4939 43.7024 25.4661 43.6911 25.4371 43.6911ZM37.392 40.7397H36.0738C36.0594 40.7397 36.0452 40.7426 36.0319 40.7482C36.0186 40.7538 36.0066 40.7619 35.9965 40.7721C35.9864 40.7823 35.9784 40.7944 35.9729 40.8078C35.9675 40.8211 35.9648 40.8353 35.9648 40.8497L35.9653 43.3968H33.9108V40.8497C33.9109 40.8353 33.9081 40.8211 33.9027 40.8078C33.8973 40.7945 33.8893 40.7824 33.8792 40.7722C33.8691 40.762 33.8571 40.7538 33.8439 40.7483C33.8306 40.7427 33.8164 40.7398 33.8021 40.7397H32.4841C32.4697 40.7397 32.4555 40.7426 32.4422 40.7482C32.429 40.7538 32.4169 40.7619 32.4068 40.7721C32.3967 40.7823 32.3887 40.7944 32.3832 40.8078C32.3778 40.8211 32.3751 40.8353 32.3752 40.8497V47.7469C32.3752 47.8075 32.4242 47.8569 32.4841 47.8569H33.8021C33.8164 47.8568 33.8307 47.8539 33.8439 47.8483C33.8572 47.8427 33.8692 47.8346 33.8793 47.8243C33.8894 47.8141 33.8974 47.802 33.9028 47.7886C33.9082 47.7753 33.9109 47.7611 33.9108 47.7467V44.7966H35.9653L35.9618 47.7467C35.9618 47.8075 36.0108 47.8569 36.0712 47.8569H37.392C37.4063 47.8568 37.4206 47.8539 37.4338 47.8483C37.4471 47.8427 37.4591 47.8346 37.4692 47.8243C37.4793 47.8141 37.4873 47.802 37.4927 47.7886C37.4981 47.7753 37.5008 47.7611 37.5007 47.7467V40.8495C37.5008 40.8351 37.4981 40.8209 37.4927 40.8075C37.4873 40.7942 37.4793 40.7821 37.4692 40.7719C37.4591 40.7617 37.4471 40.7536 37.4338 40.7481C37.4206 40.7425 37.4063 40.7397 37.392 40.7397ZM27.0744 40.8965C26.6054 40.8965 26.2248 41.28 26.2248 41.7547C26.2248 42.2287 26.6054 42.6133 27.0744 42.6133C27.5438 42.6133 27.9242 42.2287 27.9242 41.7547C27.9242 41.28 27.5436 40.8965 27.0744 40.8965ZM27.721 42.9983H26.4072C26.3468 42.9983 26.293 43.0604 26.293 43.1208V47.6821C26.293 47.8162 26.3766 47.8561 26.4847 47.8561H27.6681C27.7982 47.8561 27.83 47.7922 27.83 47.68V43.1083C27.83 43.0939 27.8273 43.0797 27.8218 43.0664C27.8164 43.0531 27.8084 43.041 27.7982 43.0308C27.7881 43.0206 27.7761 43.0125 27.7629 43.007C27.7496 43.0014 27.7354 42.9983 27.721 42.9983ZM42.5098 43.0086H41.2017C41.1874 43.0087 41.1731 43.0116 41.1599 43.0172C41.1467 43.0228 41.1347 43.031 41.1246 43.0412C41.1146 43.0514 41.1066 43.0636 41.1012 43.0769C41.0958 43.0902 41.0931 43.1044 41.0932 43.1188V46.5007C41.0932 46.5007 40.7607 46.7435 40.2893 46.7435C39.8179 46.7435 39.6928 46.5298 39.6928 46.068V43.1188C39.6929 43.1044 39.6902 43.0902 39.6848 43.0768C39.6794 43.0635 39.6714 43.0514 39.6613 43.0411C39.6512 43.0309 39.6392 43.0227 39.6259 43.0171C39.6127 43.0116 39.5984 43.0086 39.5841 43.0086H38.2567C38.2276 43.0088 38.1999 43.0205 38.1794 43.0412C38.159 43.0618 38.1476 43.0898 38.1477 43.1188V46.2911C38.1477 47.6627 38.9123 47.9982 39.9638 47.9982C40.8266 47.9982 41.5222 47.5214 41.5222 47.5214C41.5222 47.5214 41.555 47.7729 41.5703 47.8025C41.5856 47.8322 41.6243 47.8622 41.6666 47.8622L42.5109 47.8585C42.5254 47.8584 42.5396 47.8555 42.5529 47.8499C42.5662 47.8444 42.5783 47.8362 42.5885 47.826C42.5986 47.8157 42.6067 47.8036 42.6121 47.7903C42.6176 47.7769 42.6204 47.7626 42.6203 47.7482L42.6197 43.1181C42.6195 43.0891 42.608 43.0613 42.5875 43.0408C42.567 43.0202 42.5393 43.0086 42.5103 43.0083L42.5098 43.0086ZM46.0847 42.8537C45.3418 42.8537 44.8365 43.1851 44.8365 43.1851V40.8495C44.8366 40.8351 44.8338 40.8209 44.8284 40.8076C44.823 40.7943 44.815 40.7822 44.8049 40.772C44.7948 40.7617 44.7828 40.7536 44.7696 40.748C44.7563 40.7425 44.7421 40.7395 44.7277 40.7395H43.4063C43.3919 40.7395 43.3776 40.7423 43.3643 40.7478C43.351 40.7534 43.3389 40.7615 43.3287 40.7717C43.3185 40.7819 43.3105 40.7941 43.305 40.8074C43.2996 40.8208 43.2968 40.8351 43.2969 40.8495V47.7467C43.2968 47.7611 43.2996 47.7754 43.305 47.7887C43.3105 47.8021 43.3185 47.8142 43.3287 47.8244C43.3389 47.8347 43.351 47.8428 43.3643 47.8483C43.3776 47.8539 43.3919 47.8567 43.4063 47.8567H44.3233C44.3648 47.8567 44.3959 47.8355 44.4189 47.7981C44.4414 47.7609 44.4744 47.48 44.4744 47.48C44.4744 47.48 45.0147 47.9919 46.0381 47.9919C47.239 47.9919 47.9281 47.3829 47.9281 45.2571C47.9281 43.1313 46.8277 42.8535 46.0844 42.8535L46.0847 42.8537ZM45.5684 46.7396C45.1149 46.7258 44.8072 46.5199 44.8072 46.5199V44.3357C44.8072 44.3357 45.1108 44.1498 45.4831 44.1161C45.9541 44.0739 46.408 44.2163 46.408 45.3398C46.408 46.5247 46.2034 46.7586 45.5686 46.7393L45.5684 46.7396ZM31.6364 46.7137C31.5789 46.7137 31.4315 46.7371 31.2799 46.7371C30.7942 46.7371 30.6295 46.5114 30.6295 46.2191V44.2797H31.6183C31.6327 44.2797 31.647 44.2768 31.6603 44.2713C31.6737 44.2657 31.6858 44.2576 31.6959 44.2474C31.7061 44.2371 31.7141 44.225 31.7196 44.2116C31.725 44.1982 31.7278 44.1839 31.7277 44.1695V43.1072C31.7277 43.0928 31.7249 43.0785 31.7195 43.0652C31.714 43.0519 31.7059 43.0398 31.6958 43.0296C31.6856 43.0194 31.6735 43.0113 31.6602 43.0058C31.6469 43.0002 31.6327 42.9974 31.6183 42.9974H30.6295L30.628 41.6915C30.628 41.6418 30.6026 41.6171 30.5453 41.6171H29.1978C29.1457 41.6171 29.1175 41.6403 29.1175 41.6904V43.04C29.1175 43.04 28.4422 43.203 28.3967 43.2161C28.374 43.2228 28.3541 43.2366 28.3399 43.2555C28.3257 43.2745 28.318 43.2975 28.318 43.3211V44.1692C28.3179 44.1836 28.3207 44.1978 28.3261 44.2111C28.3315 44.2244 28.3395 44.2366 28.3496 44.2468C28.3597 44.257 28.3717 44.2651 28.3849 44.2707C28.3981 44.2763 28.4124 44.2792 28.4267 44.2793H29.1175V46.3198C29.1175 47.8357 30.1807 47.9845 30.8982 47.9845C31.2256 47.9845 31.6178 47.8795 31.6826 47.8554C31.722 47.8407 31.7445 47.8003 31.7445 47.7563L31.7454 46.8233C31.7449 46.7944 31.7333 46.7668 31.7129 46.7463C31.6925 46.7258 31.6649 46.7141 31.636 46.7135L31.6364 46.7137Z" fill="#F8F8F8"/>
</g>
<defs>
<clipPath id="clip0_281_99">
<rect width="28" height="28" fill="white" transform="translate(20 20)"/>
</clipPath>
</defs>
</svg>
